<?xml version="1.0" encoding="UTF-8" standalone="no"?>
<!DOCTYPE svg PUBLIC "-//W3C//DTD SVG 1.1//EN"
 "http://www.w3.org/Graphics/SVG/1.1/DTD/svg11.dtd">
<!-- Generated by graphviz version 2.50.0 (0)
 -->
<!-- Title: G Pages: 1 -->
<svg width="1947pt" height="1955pt"
 viewBox="0.00 0.00 1460.00 1466.00" xmlns="http://www.w3.org/2000/svg" xmlns:xlink="http://www.w3.org/1999/xlink">
<g id="graph0" class="graph" transform="scale(1.33 1.33) rotate(0) translate(4 1462)">
<title>G</title>
<polygon fill="white" stroke="transparent" points="-4,4 -4,-1462 1456,-1462 1456,4 -4,4"/>
<!-- 2535314825992 -->
<g id="node1" class="node">
<title>2535314825992</title>
<polygon fill="none" stroke="black" points="584,-1411.5 584,-1457.5 868,-1457.5 868,-1411.5 584,-1411.5"/>
<text text-anchor="middle" x="646.5" y="-1430.8" font-family="Times New Roman,serif" font-size="14.00">input_1: InputLayer</text>
<polyline fill="none" stroke="black" points="709,-1411.5 709,-1457.5 "/>
<text text-anchor="middle" x="736.5" y="-1442.3" font-family="Times New Roman,serif" font-size="14.00">input:</text>
<polyline fill="none" stroke="black" points="709,-1434.5 764,-1434.5 "/>
<text text-anchor="middle" x="736.5" y="-1419.3" font-family="Times New Roman,serif" font-size="14.00">output:</text>
<polyline fill="none" stroke="black" points="764,-1411.5 764,-1457.5 "/>
<text text-anchor="middle" x="816" y="-1442.3" font-family="Times New Roman,serif" font-size="14.00">[(?, 80, 240, 3)]</text>
<polyline fill="none" stroke="black" points="764,-1434.5 868,-1434.5 "/>
<text text-anchor="middle" x="816" y="-1419.3" font-family="Times New Roman,serif" font-size="14.00">[(?, 80, 240, 3)]</text>
</g>
<!-- 2535447842184 -->
<g id="node2" class="node">
<title>2535447842184</title>
<polygon fill="none" stroke="black" points="593,-1328.5 593,-1374.5 859,-1374.5 859,-1328.5 593,-1328.5"/>
<text text-anchor="middle" x="648" y="-1347.8" font-family="Times New Roman,serif" font-size="14.00">conv2d: Conv2D</text>
<polyline fill="none" stroke="black" points="703,-1328.5 703,-1374.5 "/>
<text text-anchor="middle" x="730.5" y="-1359.3" font-family="Times New Roman,serif" font-size="14.00">input:</text>
<polyline fill="none" stroke="black" points="703,-1351.5 758,-1351.5 "/>
<text text-anchor="middle" x="730.5" y="-1336.3" font-family="Times New Roman,serif" font-size="14.00">output:</text>
<polyline fill="none" stroke="black" points="758,-1328.5 758,-1374.5 "/>
<text text-anchor="middle" x="808.5" y="-1359.3" font-family="Times New Roman,serif" font-size="14.00">(?, 80, 240, 3)</text>
<polyline fill="none" stroke="black" points="758,-1351.5 859,-1351.5 "/>
<text text-anchor="middle" x="808.5" y="-1336.3" font-family="Times New Roman,serif" font-size="14.00">(?, 80, 240, 16)</text>
</g>
<!-- 2535314825992&#45;&gt;2535447842184 -->
<g id="edge1" class="edge">
<title>2535314825992&#45;&gt;2535447842184</title>
<path fill="none" stroke="black" d="M726,-1411.37C726,-1403.15 726,-1393.66 726,-1384.73"/>
<polygon fill="black" stroke="black" points="729.5,-1384.61 726,-1374.61 722.5,-1384.61 729.5,-1384.61"/>
</g>
<!-- 2535448225864 -->
<g id="node3" class="node">
<title>2535448225864</title>
<polygon fill="none" stroke="black" points="551,-1245.5 551,-1291.5 901,-1291.5 901,-1245.5 551,-1245.5"/>
<text text-anchor="middle" x="648" y="-1264.8" font-family="Times New Roman,serif" font-size="14.00">max_pooling2d: MaxPooling2D</text>
<polyline fill="none" stroke="black" points="745,-1245.5 745,-1291.5 "/>
<text text-anchor="middle" x="772.5" y="-1276.3" font-family="Times New Roman,serif" font-size="14.00">input:</text>
<polyline fill="none" stroke="black" points="745,-1268.5 800,-1268.5 "/>
<text text-anchor="middle" x="772.5" y="-1253.3" font-family="Times New Roman,serif" font-size="14.00">output:</text>
<polyline fill="none" stroke="black" points="800,-1245.5 800,-1291.5 "/>
<text text-anchor="middle" x="850.5" y="-1276.3" font-family="Times New Roman,serif" font-size="14.00">(?, 80, 240, 16)</text>
<polyline fill="none" stroke="black" points="800,-1268.5 901,-1268.5 "/>
<text text-anchor="middle" x="850.5" y="-1253.3" font-family="Times New Roman,serif" font-size="14.00">(?, 40, 120, 16)</text>
</g>
<!-- 2535447842184&#45;&gt;2535448225864 -->
<g id="edge2" class="edge">
<title>2535447842184&#45;&gt;2535448225864</title>
<path fill="none" stroke="black" d="M726,-1328.37C726,-1320.15 726,-1310.66 726,-1301.73"/>
<polygon fill="black" stroke="black" points="729.5,-1301.61 726,-1291.61 722.5,-1301.61 729.5,-1301.61"/>
</g>
<!-- 2535443786376 -->
<g id="node4" class="node">
<title>2535443786376</title>
<polygon fill="none" stroke="black" points="586.5,-1162.5 586.5,-1208.5 865.5,-1208.5 865.5,-1162.5 586.5,-1162.5"/>
<text text-anchor="middle" x="648" y="-1181.8" font-family="Times New Roman,serif" font-size="14.00">conv2d_1: Conv2D</text>
<polyline fill="none" stroke="black" points="709.5,-1162.5 709.5,-1208.5 "/>
<text text-anchor="middle" x="737" y="-1193.3" font-family="Times New Roman,serif" font-size="14.00">input:</text>
<polyline fill="none" stroke="black" points="709.5,-1185.5 764.5,-1185.5 "/>
<text text-anchor="middle" x="737" y="-1170.3" font-family="Times New Roman,serif" font-size="14.00">output:</text>
<polyline fill="none" stroke="black" points="764.5,-1162.5 764.5,-1208.5 "/>
<text text-anchor="middle" x="815" y="-1193.3" font-family="Times New Roman,serif" font-size="14.00">(?, 40, 120, 16)</text>
<polyline fill="none" stroke="black" points="764.5,-1185.5 865.5,-1185.5 "/>
<text text-anchor="middle" x="815" y="-1170.3" font-family="Times New Roman,serif" font-size="14.00">(?, 38, 118, 32)</text>
</g>
<!-- 2535448225864&#45;&gt;2535443786376 -->
<g id="edge3" class="edge">
<title>2535448225864&#45;&gt;2535443786376</title>
<path fill="none" stroke="black" d="M726,-1245.37C726,-1237.15 726,-1227.66 726,-1218.73"/>
<polygon fill="black" stroke="black" points="729.5,-1218.61 726,-1208.61 722.5,-1218.61 729.5,-1218.61"/>
</g>
<!-- 2535443733512 -->
<g id="node5" class="node">
<title>2535443733512</title>
<polygon fill="none" stroke="black" points="586.5,-1079.5 586.5,-1125.5 865.5,-1125.5 865.5,-1079.5 586.5,-1079.5"/>
<text text-anchor="middle" x="648" y="-1098.8" font-family="Times New Roman,serif" font-size="14.00">conv2d_2: Conv2D</text>
<polyline fill="none" stroke="black" points="709.5,-1079.5 709.5,-1125.5 "/>
<text text-anchor="middle" x="737" y="-1110.3" font-family="Times New Roman,serif" font-size="14.00">input:</text>
<polyline fill="none" stroke="black" points="709.5,-1102.5 764.5,-1102.5 "/>
<text text-anchor="middle" x="737" y="-1087.3" font-family="Times New Roman,serif" font-size="14.00">output:</text>
<polyline fill="none" stroke="black" points="764.5,-1079.5 764.5,-1125.5 "/>
<text text-anchor="middle" x="815" y="-1110.3" font-family="Times New Roman,serif" font-size="14.00">(?, 38, 118, 32)</text>
<polyline fill="none" stroke="black" points="764.5,-1102.5 865.5,-1102.5 "/>
<text text-anchor="middle" x="815" y="-1087.3" font-family="Times New Roman,serif" font-size="14.00">(?, 36, 116, 32)</text>
</g>
<!-- 2535443786376&#45;&gt;2535443733512 -->
<g id="edge4" class="edge">
<title>2535443786376&#45;&gt;2535443733512</title>
<path fill="none" stroke="black" d="M726,-1162.37C726,-1154.15 726,-1144.66 726,-1135.73"/>
<polygon fill="black" stroke="black" points="729.5,-1135.61 726,-1125.61 722.5,-1135.61 729.5,-1135.61"/>
</g>
<!-- 2535448461512 -->
<g id="node6" class="node">
<title>2535448461512</title>
<polygon fill="none" stroke="black" points="544.5,-996.5 544.5,-1042.5 907.5,-1042.5 907.5,-996.5 544.5,-996.5"/>
<text text-anchor="middle" x="648" y="-1015.8" font-family="Times New Roman,serif" font-size="14.00">max_pooling2d_1: MaxPooling2D</text>
<polyline fill="none" stroke="black" points="751.5,-996.5 751.5,-1042.5 "/>
<text text-anchor="middle" x="779" y="-1027.3" font-family="Times New Roman,serif" font-size="14.00">input:</text>
<polyline fill="none" stroke="black" points="751.5,-1019.5 806.5,-1019.5 "/>
<text text-anchor="middle" x="779" y="-1004.3" font-family="Times New Roman,serif" font-size="14.00">output:</text>
<polyline fill="none" stroke="black" points="806.5,-996.5 806.5,-1042.5 "/>
<text text-anchor="middle" x="857" y="-1027.3" font-family="Times New Roman,serif" font-size="14.00">(?, 36, 116, 32)</text>
<polyline fill="none" stroke="black" points="806.5,-1019.5 907.5,-1019.5 "/>
<text text-anchor="middle" x="857" y="-1004.3" font-family="Times New Roman,serif" font-size="14.00">(?, 18, 58, 32)</text>
</g>
<!-- 2535443733512&#45;&gt;2535448461512 -->
<g id="edge5" class="edge">
<title>2535443733512&#45;&gt;2535448461512</title>
<path fill="none" stroke="black" d="M726,-1079.37C726,-1071.15 726,-1061.66 726,-1052.73"/>
<polygon fill="black" stroke="black" points="729.5,-1052.61 726,-1042.61 722.5,-1052.61 729.5,-1052.61"/>
</g>
<!-- 2535449329096 -->
<g id="node7" class="node">
<title>2535449329096</title>
<polygon fill="none" stroke="black" points="595.5,-913.5 595.5,-959.5 856.5,-959.5 856.5,-913.5 595.5,-913.5"/>
<text text-anchor="middle" x="651" y="-932.8" font-family="Times New Roman,serif" font-size="14.00">dropout: Dropout</text>
<polyline fill="none" stroke="black" points="706.5,-913.5 706.5,-959.5 "/>
<text text-anchor="middle" x="734" y="-944.3" font-family="Times New Roman,serif" font-size="14.00">input:</text>
<polyline fill="none" stroke="black" points="706.5,-936.5 761.5,-936.5 "/>
<text text-anchor="middle" x="734" y="-921.3" font-family="Times New Roman,serif" font-size="14.00">output:</text>
<polyline fill="none" stroke="black" points="761.5,-913.5 761.5,-959.5 "/>
<text text-anchor="middle" x="809" y="-944.3" font-family="Times New Roman,serif" font-size="14.00">(?, 18, 58, 32)</text>
<polyline fill="none" stroke="black" points="761.5,-936.5 856.5,-936.5 "/>
<text text-anchor="middle" x="809" y="-921.3" font-family="Times New Roman,serif" font-size="14.00">(?, 18, 58, 32)</text>
</g>
<!-- 2535448461512&#45;&gt;2535449329096 -->
<g id="edge6" class="edge">
<title>2535448461512&#45;&gt;2535449329096</title>
<path fill="none" stroke="black" d="M726,-996.37C726,-988.15 726,-978.66 726,-969.73"/>
<polygon fill="black" stroke="black" points="729.5,-969.61 726,-959.61 722.5,-969.61 729.5,-969.61"/>
</g>
<!-- 2535449308808 -->
<g id="node8" class="node">
<title>2535449308808</title>
<polygon fill="none" stroke="black" points="589.5,-830.5 589.5,-876.5 862.5,-876.5 862.5,-830.5 589.5,-830.5"/>
<text text-anchor="middle" x="651" y="-849.8" font-family="Times New Roman,serif" font-size="14.00">conv2d_3: Conv2D</text>
<polyline fill="none" stroke="black" points="712.5,-830.5 712.5,-876.5 "/>
<text text-anchor="middle" x="740" y="-861.3" font-family="Times New Roman,serif" font-size="14.00">input:</text>
<polyline fill="none" stroke="black" points="712.5,-853.5 767.5,-853.5 "/>
<text text-anchor="middle" x="740" y="-838.3" font-family="Times New Roman,serif" font-size="14.00">output:</text>
<polyline fill="none" stroke="black" points="767.5,-830.5 767.5,-876.5 "/>
<text text-anchor="middle" x="815" y="-861.3" font-family="Times New Roman,serif" font-size="14.00">(?, 18, 58, 32)</text>
<polyline fill="none" stroke="black" points="767.5,-853.5 862.5,-853.5 "/>
<text text-anchor="middle" x="815" y="-838.3" font-family="Times New Roman,serif" font-size="14.00">(?, 16, 56, 64)</text>
</g>
<!-- 2535449329096&#45;&gt;2535449308808 -->
<g id="edge7" class="edge">
<title>2535449329096&#45;&gt;2535449308808</title>
<path fill="none" stroke="black" d="M726,-913.37C726,-905.15 726,-895.66 726,-886.73"/>
<polygon fill="black" stroke="black" points="729.5,-886.61 726,-876.61 722.5,-886.61 729.5,-886.61"/>
</g>
<!-- 2535449343688 -->
<g id="node9" class="node">
<title>2535449343688</title>
<polygon fill="none" stroke="black" points="589.5,-747.5 589.5,-793.5 862.5,-793.5 862.5,-747.5 589.5,-747.5"/>
<text text-anchor="middle" x="651" y="-766.8" font-family="Times New Roman,serif" font-size="14.00">conv2d_4: Conv2D</text>
<polyline fill="none" stroke="black" points="712.5,-747.5 712.5,-793.5 "/>
<text text-anchor="middle" x="740" y="-778.3" font-family="Times New Roman,serif" font-size="14.00">input:</text>
<polyline fill="none" stroke="black" points="712.5,-770.5 767.5,-770.5 "/>
<text text-anchor="middle" x="740" y="-755.3" font-family="Times New Roman,serif" font-size="14.00">output:</text>
<polyline fill="none" stroke="black" points="767.5,-747.5 767.5,-793.5 "/>
<text text-anchor="middle" x="815" y="-778.3" font-family="Times New Roman,serif" font-size="14.00">(?, 16, 56, 64)</text>
<polyline fill="none" stroke="black" points="767.5,-770.5 862.5,-770.5 "/>
<text text-anchor="middle" x="815" y="-755.3" font-family="Times New Roman,serif" font-size="14.00">(?, 14, 54, 64)</text>
</g>
<!-- 2535449308808&#45;&gt;2535449343688 -->
<g id="edge8" class="edge">
<title>2535449308808&#45;&gt;2535449343688</title>
<path fill="none" stroke="black" d="M726,-830.37C726,-822.15 726,-812.66 726,-803.73"/>
<polygon fill="black" stroke="black" points="729.5,-803.61 726,-793.61 722.5,-803.61 729.5,-803.61"/>
</g>
<!-- 2535447686088 -->
<g id="node10" class="node">
<title>2535447686088</title>
<polygon fill="none" stroke="black" points="547.5,-664.5 547.5,-710.5 904.5,-710.5 904.5,-664.5 547.5,-664.5"/>
<text text-anchor="middle" x="651" y="-683.8" font-family="Times New Roman,serif" font-size="14.00">max_pooling2d_2: MaxPooling2D</text>
<polyline fill="none" stroke="black" points="754.5,-664.5 754.5,-710.5 "/>
<text text-anchor="middle" x="782" y="-695.3" font-family="Times New Roman,serif" font-size="14.00">input:</text>
<polyline fill="none" stroke="black" points="754.5,-687.5 809.5,-687.5 "/>
<text text-anchor="middle" x="782" y="-672.3" font-family="Times New Roman,serif" font-size="14.00">output:</text>
<polyline fill="none" stroke="black" points="809.5,-664.5 809.5,-710.5 "/>
<text text-anchor="middle" x="857" y="-695.3" font-family="Times New Roman,serif" font-size="14.00">(?, 14, 54, 64)</text>
<polyline fill="none" stroke="black" points="809.5,-687.5 904.5,-687.5 "/>
<text text-anchor="middle" x="857" y="-672.3" font-family="Times New Roman,serif" font-size="14.00">(?, 7, 27, 64)</text>
</g>
<!-- 2535449343688&#45;&gt;2535447686088 -->
<g id="edge9" class="edge">
<title>2535449343688&#45;&gt;2535447686088</title>
<path fill="none" stroke="black" d="M726,-747.37C726,-739.15 726,-729.66 726,-720.73"/>
<polygon fill="black" stroke="black" points="729.5,-720.61 726,-710.61 722.5,-720.61 729.5,-720.61"/>
</g>
<!-- 2535468323336 -->
<g id="node11" class="node">
<title>2535468323336</title>
<polygon fill="none" stroke="black" points="592,-581.5 592,-627.5 860,-627.5 860,-581.5 592,-581.5"/>
<text text-anchor="middle" x="654.5" y="-600.8" font-family="Times New Roman,serif" font-size="14.00">dropout_1: Dropout</text>
<polyline fill="none" stroke="black" points="717,-581.5 717,-627.5 "/>
<text text-anchor="middle" x="744.5" y="-612.3" font-family="Times New Roman,serif" font-size="14.00">input:</text>
<polyline fill="none" stroke="black" points="717,-604.5 772,-604.5 "/>
<text text-anchor="middle" x="744.5" y="-589.3" font-family="Times New Roman,serif" font-size="14.00">output:</text>
<polyline fill="none" stroke="black" points="772,-581.5 772,-627.5 "/>
<text text-anchor="middle" x="816" y="-612.3" font-family="Times New Roman,serif" font-size="14.00">(?, 7, 27, 64)</text>
<polyline fill="none" stroke="black" points="772,-604.5 860,-604.5 "/>
<text text-anchor="middle" x="816" y="-589.3" font-family="Times New Roman,serif" font-size="14.00">(?, 7, 27, 64)</text>
</g>
<!-- 2535447686088&#45;&gt;2535468323336 -->
<g id="edge10" class="edge">
<title>2535447686088&#45;&gt;2535468323336</title>
<path fill="none" stroke="black" d="M726,-664.37C726,-656.15 726,-646.66 726,-637.73"/>
<polygon fill="black" stroke="black" points="729.5,-637.61 726,-627.61 722.5,-637.61 729.5,-637.61"/>
</g>
<!-- 2535448224008 -->
<g id="node12" class="node">
<title>2535448224008</title>
<polygon fill="none" stroke="black" points="589.5,-498.5 589.5,-544.5 862.5,-544.5 862.5,-498.5 589.5,-498.5"/>
<text text-anchor="middle" x="651" y="-517.8" font-family="Times New Roman,serif" font-size="14.00">conv2d_5: Conv2D</text>
<polyline fill="none" stroke="black" points="712.5,-498.5 712.5,-544.5 "/>
<text text-anchor="middle" x="740" y="-529.3" font-family="Times New Roman,serif" font-size="14.00">input:</text>
<polyline fill="none" stroke="black" points="712.5,-521.5 767.5,-521.5 "/>
<text text-anchor="middle" x="740" y="-506.3" font-family="Times New Roman,serif" font-size="14.00">output:</text>
<polyline fill="none" stroke="black" points="767.5,-498.5 767.5,-544.5 "/>
<text text-anchor="middle" x="815" y="-529.3" font-family="Times New Roman,serif" font-size="14.00">(?, 7, 27, 64)</text>
<polyline fill="none" stroke="black" points="767.5,-521.5 862.5,-521.5 "/>
<text text-anchor="middle" x="815" y="-506.3" font-family="Times New Roman,serif" font-size="14.00">(?, 5, 25, 128)</text>
</g>
<!-- 2535468323336&#45;&gt;2535448224008 -->
<g id="edge11" class="edge">
<title>2535468323336&#45;&gt;2535448224008</title>
<path fill="none" stroke="black" d="M726,-581.37C726,-573.15 726,-563.66 726,-554.73"/>
<polygon fill="black" stroke="black" points="729.5,-554.61 726,-544.61 722.5,-554.61 729.5,-554.61"/>
</g>
<!-- 2535448171080 -->
<g id="node13" class="node">
<title>2535448171080</title>
<polygon fill="none" stroke="black" points="589.5,-415.5 589.5,-461.5 862.5,-461.5 862.5,-415.5 589.5,-415.5"/>
<text text-anchor="middle" x="651" y="-434.8" font-family="Times New Roman,serif" font-size="14.00">conv2d_6: Conv2D</text>
<polyline fill="none" stroke="black" points="712.5,-415.5 712.5,-461.5 "/>
<text text-anchor="middle" x="740" y="-446.3" font-family="Times New Roman,serif" font-size="14.00">input:</text>
<polyline fill="none" stroke="black" points="712.5,-438.5 767.5,-438.5 "/>
<text text-anchor="middle" x="740" y="-423.3" font-family="Times New Roman,serif" font-size="14.00">output:</text>
<polyline fill="none" stroke="black" points="767.5,-415.5 767.5,-461.5 "/>
<text text-anchor="middle" x="815" y="-446.3" font-family="Times New Roman,serif" font-size="14.00">(?, 5, 25, 128)</text>
<polyline fill="none" stroke="black" points="767.5,-438.5 862.5,-438.5 "/>
<text text-anchor="middle" x="815" y="-423.3" font-family="Times New Roman,serif" font-size="14.00">(?, 3, 23, 128)</text>
</g>
<!-- 2535448224008&#45;&gt;2535448171080 -->
<g id="edge12" class="edge">
<title>2535448224008&#45;&gt;2535448171080</title>
<path fill="none" stroke="black" d="M726,-498.37C726,-490.15 726,-480.66 726,-471.73"/>
<polygon fill="black" stroke="black" points="729.5,-471.61 726,-461.61 722.5,-471.61 729.5,-471.61"/>
</g>
<!-- 2535448334792 -->
<g id="node14" class="node">
<title>2535448334792</title>
<polygon fill="none" stroke="black" points="547.5,-332.5 547.5,-378.5 904.5,-378.5 904.5,-332.5 547.5,-332.5"/>
<text text-anchor="middle" x="651" y="-351.8" font-family="Times New Roman,serif" font-size="14.00">max_pooling2d_3: MaxPooling2D</text>
<polyline fill="none" stroke="black" points="754.5,-332.5 754.5,-378.5 "/>
<text text-anchor="middle" x="782" y="-363.3" font-family="Times New Roman,serif" font-size="14.00">input:</text>
<polyline fill="none" stroke="black" points="754.5,-355.5 809.5,-355.5 "/>
<text text-anchor="middle" x="782" y="-340.3" font-family="Times New Roman,serif" font-size="14.00">output:</text>
<polyline fill="none" stroke="black" points="809.5,-332.5 809.5,-378.5 "/>
<text text-anchor="middle" x="857" y="-363.3" font-family="Times New Roman,serif" font-size="14.00">(?, 3, 23, 128)</text>
<polyline fill="none" stroke="black" points="809.5,-355.5 904.5,-355.5 "/>
<text text-anchor="middle" x="857" y="-340.3" font-family="Times New Roman,serif" font-size="14.00">(?, 2, 12, 128)</text>
</g>
<!-- 2535448171080&#45;&gt;2535448334792 -->
<g id="edge13" class="edge">
<title>2535448171080&#45;&gt;2535448334792</title>
<path fill="none" stroke="black" d="M726,-415.37C726,-407.15 726,-397.66 726,-388.73"/>
<polygon fill="black" stroke="black" points="729.5,-388.61 726,-378.61 722.5,-388.61 729.5,-388.61"/>
</g>
<!-- 2535468437832 -->
<g id="node15" class="node">
<title>2535468437832</title>
<polygon fill="none" stroke="black" points="588.5,-249.5 588.5,-295.5 863.5,-295.5 863.5,-249.5 588.5,-249.5"/>
<text text-anchor="middle" x="651" y="-268.8" font-family="Times New Roman,serif" font-size="14.00">dropout_2: Dropout</text>
<polyline fill="none" stroke="black" points="713.5,-249.5 713.5,-295.5 "/>
<text text-anchor="middle" x="741" y="-280.3" font-family="Times New Roman,serif" font-size="14.00">input:</text>
<polyline fill="none" stroke="black" points="713.5,-272.5 768.5,-272.5 "/>
<text text-anchor="middle" x="741" y="-257.3" font-family="Times New Roman,serif" font-size="14.00">output:</text>
<polyline fill="none" stroke="black" points="768.5,-249.5 768.5,-295.5 "/>
<text text-anchor="middle" x="816" y="-280.3" font-family="Times New Roman,serif" font-size="14.00">(?, 2, 12, 128)</text>
<polyline fill="none" stroke="black" points="768.5,-272.5 863.5,-272.5 "/>
<text text-anchor="middle" x="816" y="-257.3" font-family="Times New Roman,serif" font-size="14.00">(?, 2, 12, 128)</text>
</g>
<!-- 2535448334792&#45;&gt;2535468437832 -->
<g id="edge14" class="edge">
<title>2535448334792&#45;&gt;2535468437832</title>
<path fill="none" stroke="black" d="M726,-332.37C726,-324.15 726,-314.66 726,-305.73"/>
<polygon fill="black" stroke="black" points="729.5,-305.61 726,-295.61 722.5,-305.61 729.5,-305.61"/>
</g>
<!-- 2535447662344 -->
<g id="node16" class="node">
<title>2535447662344</title>
<polygon fill="none" stroke="black" points="603,-166.5 603,-212.5 849,-212.5 849,-166.5 603,-166.5"/>
<text text-anchor="middle" x="651" y="-185.8" font-family="Times New Roman,serif" font-size="14.00">flatten: Flatten</text>
<polyline fill="none" stroke="black" points="699,-166.5 699,-212.5 "/>
<text text-anchor="middle" x="726.5" y="-197.3" font-family="Times New Roman,serif" font-size="14.00">input:</text>
<polyline fill="none" stroke="black" points="699,-189.5 754,-189.5 "/>
<text text-anchor="middle" x="726.5" y="-174.3" font-family="Times New Roman,serif" font-size="14.00">output:</text>
<polyline fill="none" stroke="black" points="754,-166.5 754,-212.5 "/>
<text text-anchor="middle" x="801.5" y="-197.3" font-family="Times New Roman,serif" font-size="14.00">(?, 2, 12, 128)</text>
<polyline fill="none" stroke="black" points="754,-189.5 849,-189.5 "/>
<text text-anchor="middle" x="801.5" y="-174.3" font-family="Times New Roman,serif" font-size="14.00">(?, 3072)</text>
</g>
<!-- 2535468437832&#45;&gt;2535447662344 -->
<g id="edge15" class="edge">
<title>2535468437832&#45;&gt;2535447662344</title>
<path fill="none" stroke="black" d="M726,-249.37C726,-241.15 726,-231.66 726,-222.73"/>
<polygon fill="black" stroke="black" points="729.5,-222.61 726,-212.61 722.5,-222.61 729.5,-222.61"/>
</g>
<!-- 2535441222472 -->
<g id="node17" class="node">
<title>2535441222472</title>
<polygon fill="none" stroke="black" points="603,-83.5 603,-129.5 849,-129.5 849,-83.5 603,-83.5"/>
<text text-anchor="middle" x="665.5" y="-102.8" font-family="Times New Roman,serif" font-size="14.00">dropout_3: Dropout</text>
<polyline fill="none" stroke="black" points="728,-83.5 728,-129.5 "/>
<text text-anchor="middle" x="755.5" y="-114.3" font-family="Times New Roman,serif" font-size="14.00">input:</text>
<polyline fill="none" stroke="black" points="728,-106.5 783,-106.5 "/>
<text text-anchor="middle" x="755.5" y="-91.3" font-family="Times New Roman,serif" font-size="14.00">output:</text>
<polyline fill="none" stroke="black" points="783,-83.5 783,-129.5 "/>
<text text-anchor="middle" x="816" y="-114.3" font-family="Times New Roman,serif" font-size="14.00">(?, 3072)</text>
<polyline fill="none" stroke="black" points="783,-106.5 849,-106.5 "/>
<text text-anchor="middle" x="816" y="-91.3" font-family="Times New Roman,serif" font-size="14.00">(?, 3072)</text>
</g>
<!-- 2535447662344&#45;&gt;2535441222472 -->
<g id="edge16" class="edge">
<title>2535447662344&#45;&gt;2535441222472</title>
<path fill="none" stroke="black" d="M726,-166.37C726,-158.15 726,-148.66 726,-139.73"/>
<polygon fill="black" stroke="black" points="729.5,-139.61 726,-129.61 722.5,-139.61 729.5,-139.61"/>
</g>
<!-- 2535447473480 -->
<g id="node18" class="node">
<title>2535447473480</title>
<polygon fill="none" stroke="black" points="0,-0.5 0,-46.5 192,-46.5 192,-0.5 0,-0.5"/>
<text text-anchor="middle" x="35.5" y="-19.8" font-family="Times New Roman,serif" font-size="14.00">c1: Dense</text>
<polyline fill="none" stroke="black" points="71,-0.5 71,-46.5 "/>
<text text-anchor="middle" x="98.5" y="-31.3" font-family="Times New Roman,serif" font-size="14.00">input:</text>
<polyline fill="none" stroke="black" points="71,-23.5 126,-23.5 "/>
<text text-anchor="middle" x="98.5" y="-8.3" font-family="Times New Roman,serif" font-size="14.00">output:</text>
<polyline fill="none" stroke="black" points="126,-0.5 126,-46.5 "/>
<text text-anchor="middle" x="159" y="-31.3" font-family="Times New Roman,serif" font-size="14.00">(?, 3072)</text>
<polyline fill="none" stroke="black" points="126,-23.5 192,-23.5 "/>
<text text-anchor="middle" x="159" y="-8.3" font-family="Times New Roman,serif" font-size="14.00">(?, 65)</text>
</g>
<!-- 2535441222472&#45;&gt;2535447473480 -->
<g id="edge17" class="edge">
<title>2535441222472&#45;&gt;2535447473480</title>
<path fill="none" stroke="black" d="M602.74,-95.28C498.55,-85.82 345.19,-69.99 202.33,-47.14"/>
<polygon fill="black" stroke="black" points="202.49,-43.62 192.06,-45.49 201.37,-50.53 202.49,-43.62"/>
</g>
<!-- 2535447304136 -->
<g id="node19" class="node">
<title>2535447304136</title>
<polygon fill="none" stroke="black" points="210,-0.5 210,-46.5 402,-46.5 402,-0.5 210,-0.5"/>
<text text-anchor="middle" x="245.5" y="-19.8" font-family="Times New Roman,serif" font-size="14.00">c2: Dense</text>
<polyline fill="none" stroke="black" points="281,-0.5 281,-46.5 "/>
<text text-anchor="middle" x="308.5" y="-31.3" font-family="Times New Roman,serif" font-size="14.00">input:</text>
<polyline fill="none" stroke="black" points="281,-23.5 336,-23.5 "/>
<text text-anchor="middle" x="308.5" y="-8.3" font-family="Times New Roman,serif" font-size="14.00">output:</text>
<polyline fill="none" stroke="black" points="336,-0.5 336,-46.5 "/>
<text text-anchor="middle" x="369" y="-31.3" font-family="Times New Roman,serif" font-size="14.00">(?, 3072)</text>
<polyline fill="none" stroke="black" points="336,-23.5 402,-23.5 "/>
<text text-anchor="middle" x="369" y="-8.3" font-family="Times New Roman,serif" font-size="14.00">(?, 65)</text>
</g>
<!-- 2535441222472&#45;&gt;2535447304136 -->
<g id="edge18" class="edge">
<title>2535441222472&#45;&gt;2535447304136</title>
<path fill="none" stroke="black" d="M603.18,-83.5C547.61,-73.35 480.86,-60.88 412.24,-47.23"/>
<polygon fill="black" stroke="black" points="412.6,-43.73 402.11,-45.21 411.23,-50.59 412.6,-43.73"/>
</g>
<!-- 2535468622728 -->
<g id="node20" class="node">
<title>2535468622728</title>
<polygon fill="none" stroke="black" points="420,-0.5 420,-46.5 612,-46.5 612,-0.5 420,-0.5"/>
<text text-anchor="middle" x="455.5" y="-19.8" font-family="Times New Roman,serif" font-size="14.00">c3: Dense</text>
<polyline fill="none" stroke="black" points="491,-0.5 491,-46.5 "/>
<text text-anchor="middle" x="518.5" y="-31.3" font-family="Times New Roman,serif" font-size="14.00">input:</text>
<polyline fill="none" stroke="black" points="491,-23.5 546,-23.5 "/>
<text text-anchor="middle" x="518.5" y="-8.3" font-family="Times New Roman,serif" font-size="14.00">output:</text>
<polyline fill="none" stroke="black" points="546,-0.5 546,-46.5 "/>
<text text-anchor="middle" x="579" y="-31.3" font-family="Times New Roman,serif" font-size="14.00">(?, 3072)</text>
<polyline fill="none" stroke="black" points="546,-23.5 612,-23.5 "/>
<text text-anchor="middle" x="579" y="-8.3" font-family="Times New Roman,serif" font-size="14.00">(?, 65)</text>
</g>
<!-- 2535441222472&#45;&gt;2535468622728 -->
<g id="edge19" class="edge">
<title>2535441222472&#45;&gt;2535468622728</title>
<path fill="none" stroke="black" d="M668.89,-83.47C642.28,-73.21 610.43,-60.92 582.71,-50.23"/>
<polygon fill="black" stroke="black" points="583.68,-46.86 573.09,-46.52 581.17,-53.39 583.68,-46.86"/>
</g>
<!-- 2535468657800 -->
<g id="node21" class="node">
<title>2535468657800</title>
<polygon fill="none" stroke="black" points="630,-0.5 630,-46.5 822,-46.5 822,-0.5 630,-0.5"/>
<text text-anchor="middle" x="665.5" y="-19.8" font-family="Times New Roman,serif" font-size="14.00">c4: Dense</text>
<polyline fill="none" stroke="black" points="701,-0.5 701,-46.5 "/>
<text text-anchor="middle" x="728.5" y="-31.3" font-family="Times New Roman,serif" font-size="14.00">input:</text>
<polyline fill="none" stroke="black" points="701,-23.5 756,-23.5 "/>
<text text-anchor="middle" x="728.5" y="-8.3" font-family="Times New Roman,serif" font-size="14.00">output:</text>
<polyline fill="none" stroke="black" points="756,-0.5 756,-46.5 "/>
<text text-anchor="middle" x="789" y="-31.3" font-family="Times New Roman,serif" font-size="14.00">(?, 3072)</text>
<polyline fill="none" stroke="black" points="756,-23.5 822,-23.5 "/>
<text text-anchor="middle" x="789" y="-8.3" font-family="Times New Roman,serif" font-size="14.00">(?, 65)</text>
</g>
<!-- 2535441222472&#45;&gt;2535468657800 -->
<g id="edge20" class="edge">
<title>2535441222472&#45;&gt;2535468657800</title>
<path fill="none" stroke="black" d="M726,-83.37C726,-75.15 726,-65.66 726,-56.73"/>
<polygon fill="black" stroke="black" points="729.5,-56.61 726,-46.61 722.5,-56.61 729.5,-56.61"/>
</g>
<!-- 2535468663496 -->
<g id="node22" class="node">
<title>2535468663496</title>
<polygon fill="none" stroke="black" points="840,-0.5 840,-46.5 1032,-46.5 1032,-0.5 840,-0.5"/>
<text text-anchor="middle" x="875.5" y="-19.8" font-family="Times New Roman,serif" font-size="14.00">c5: Dense</text>
<polyline fill="none" stroke="black" points="911,-0.5 911,-46.5 "/>
<text text-anchor="middle" x="938.5" y="-31.3" font-family="Times New Roman,serif" font-size="14.00">input:</text>
<polyline fill="none" stroke="black" points="911,-23.5 966,-23.5 "/>
<text text-anchor="middle" x="938.5" y="-8.3" font-family="Times New Roman,serif" font-size="14.00">output:</text>
<polyline fill="none" stroke="black" points="966,-0.5 966,-46.5 "/>
<text text-anchor="middle" x="999" y="-31.3" font-family="Times New Roman,serif" font-size="14.00">(?, 3072)</text>
<polyline fill="none" stroke="black" points="966,-23.5 1032,-23.5 "/>
<text text-anchor="middle" x="999" y="-8.3" font-family="Times New Roman,serif" font-size="14.00">(?, 65)</text>
</g>
<!-- 2535441222472&#45;&gt;2535468663496 -->
<g id="edge21" class="edge">
<title>2535441222472&#45;&gt;2535468663496</title>
<path fill="none" stroke="black" d="M783.11,-83.47C809.72,-73.21 841.57,-60.92 869.29,-50.23"/>
<polygon fill="black" stroke="black" points="870.83,-53.39 878.91,-46.52 868.32,-46.86 870.83,-53.39"/>
</g>
<!-- 2535468703048 -->
<g id="node23" class="node">
<title>2535468703048</title>
<polygon fill="none" stroke="black" points="1050,-0.5 1050,-46.5 1242,-46.5 1242,-0.5 1050,-0.5"/>
<text text-anchor="middle" x="1085.5" y="-19.8" font-family="Times New Roman,serif" font-size="14.00">c6: Dense</text>
<polyline fill="none" stroke="black" points="1121,-0.5 1121,-46.5 "/>
<text text-anchor="middle" x="1148.5" y="-31.3" font-family="Times New Roman,serif" font-size="14.00">input:</text>
<polyline fill="none" stroke="black" points="1121,-23.5 1176,-23.5 "/>
<text text-anchor="middle" x="1148.5" y="-8.3" font-family="Times New Roman,serif" font-size="14.00">output:</text>
<polyline fill="none" stroke="black" points="1176,-0.5 1176,-46.5 "/>
<text text-anchor="middle" x="1209" y="-31.3" font-family="Times New Roman,serif" font-size="14.00">(?, 3072)</text>
<polyline fill="none" stroke="black" points="1176,-23.5 1242,-23.5 "/>
<text text-anchor="middle" x="1209" y="-8.3" font-family="Times New Roman,serif" font-size="14.00">(?, 65)</text>
</g>
<!-- 2535441222472&#45;&gt;2535468703048 -->
<g id="edge22" class="edge">
<title>2535441222472&#45;&gt;2535468703048</title>
<path fill="none" stroke="black" d="M848.82,-83.5C904.39,-73.35 971.14,-60.88 1039.76,-47.23"/>
<polygon fill="black" stroke="black" points="1040.77,-50.59 1049.89,-45.21 1039.4,-43.73 1040.77,-50.59"/>
</g>
<!-- 2535468732680 -->
<g id="node24" class="node">
<title>2535468732680</title>
<polygon fill="none" stroke="black" points="1260,-0.5 1260,-46.5 1452,-46.5 1452,-0.5 1260,-0.5"/>
<text text-anchor="middle" x="1295.5" y="-19.8" font-family="Times New Roman,serif" font-size="14.00">c7: Dense</text>
<polyline fill="none" stroke="black" points="1331,-0.5 1331,-46.5 "/>
<text text-anchor="middle" x="1358.5" y="-31.3" font-family="Times New Roman,serif" font-size="14.00">input:</text>
<polyline fill="none" stroke="black" points="1331,-23.5 1386,-23.5 "/>
<text text-anchor="middle" x="1358.5" y="-8.3" font-family="Times New Roman,serif" font-size="14.00">output:</text>
<polyline fill="none" stroke="black" points="1386,-0.5 1386,-46.5 "/>
<text text-anchor="middle" x="1419" y="-31.3" font-family="Times New Roman,serif" font-size="14.00">(?, 3072)</text>
<polyline fill="none" stroke="black" points="1386,-23.5 1452,-23.5 "/>
<text text-anchor="middle" x="1419" y="-8.3" font-family="Times New Roman,serif" font-size="14.00">(?, 65)</text>
</g>
<!-- 2535441222472&#45;&gt;2535468732680 -->
<g id="edge23" class="edge">
<title>2535441222472&#45;&gt;2535468732680</title>
<path fill="none" stroke="black" d="M849.26,-95.28C953.45,-85.82 1106.81,-69.99 1249.67,-47.14"/>
<polygon fill="black" stroke="black" points="1250.63,-50.53 1259.94,-45.49 1249.51,-43.62 1250.63,-50.53"/>
</g>
</g>
</svg>
